<?xml version="1.0" encoding="UTF-8" standalone="no"?>
<!-- Created with Inkscape (http://www.inkscape.org/) -->

<svg
   width="256"
   height="256"
   viewBox="0 0 67.733334 67.733333"
   version="1.1"
   id="svg1"
   inkscape:version="1.4.2 (ebf0e94, 2025-05-08)"
   sodipodi:docname="icons.svg"
   xml:space="preserve"
   xmlns:inkscape="http://www.inkscape.org/namespaces/inkscape"
   xmlns:sodipodi="http://sodipodi.sourceforge.net/DTD/sodipodi-0.dtd"
   xmlns="http://www.w3.org/2000/svg"
   xmlns:svg="http://www.w3.org/2000/svg"><sodipodi:namedview
     id="namedview1"
     pagecolor="#ffffff"
     bordercolor="#000000"
     borderopacity="0.25"
     inkscape:showpageshadow="2"
     inkscape:pageopacity="0.0"
     inkscape:pagecheckerboard="0"
     inkscape:deskcolor="#d1d1d1"
     inkscape:document-units="mm"
     inkscape:zoom="1.9153339"
     inkscape:cx="256.35217"
     inkscape:cy="46.206042"
     inkscape:window-width="2346"
     inkscape:window-height="1272"
     inkscape:window-x="2590"
     inkscape:window-y="98"
     inkscape:window-maximized="0"
     inkscape:current-layer="layer1" /><defs
     id="defs1">
	

		
	</defs><g
     inkscape:label="Layer 1"
     inkscape:groupmode="layer"
     id="layer1"><text
       xml:space="preserve"
       style="font-weight:bold;font-size:12.3319px;font-family:'Courier New';-inkscape-font-specification:'Courier New, Bold';text-align:center;writing-mode:lr-tb;direction:ltr;text-anchor:middle;fill:#2f74b9;stroke:#163858;stroke-width:0.15;stroke-linecap:round;stroke-linejoin:round;-inkscape-stroke:none"
       x="87.027908"
       y="-48.625114"
       id="text1"><tspan
         sodipodi:role="line"
         id="tspan1"
         style="stroke-width:0.15"
         x="87.027908"
         y="-48.625114">Mockup Compiler</tspan></text><text
       xml:space="preserve"
       style="font-weight:bold;font-size:12.3319px;font-family:'Courier New';-inkscape-font-specification:'Courier New, Bold';text-align:center;writing-mode:lr-tb;direction:ltr;text-anchor:middle;fill:#dcb908;stroke:#534703;stroke-width:0.15;stroke-linecap:round;stroke-linejoin:round;-inkscape-stroke:none;font-variation-settings:normal;opacity:1;vector-effect:none;fill-opacity:1;stroke-miterlimit:4;stroke-dasharray:none;stroke-dashoffset:0;stroke-opacity:1;stop-color:#000000;stop-opacity:1"
       x="90.066971"
       y="-26.799068"
       id="text2"><tspan
         sodipodi:role="line"
         id="tspan2"
         style="stroke-width:0.15;font-variation-settings:normal;vector-effect:none;fill:#dcb908;fill-opacity:1;stroke:#534703;stroke-linecap:round;stroke-linejoin:round;stroke-miterlimit:4;stroke-dasharray:none;stroke-dashoffset:0;stroke-opacity:1;-inkscape-stroke:none;stop-color:#000000;stop-opacity:1"
         x="90.066971"
         y="-26.799068">mockup compiler</tspan></text><path
       d="m 168.12572,55.345982 -2.36465,-0.651961 c -0.26814,-0.0739 -0.7303,-0.503674 -0.82372,-0.766631 l -0.67148,-1.651647 -0.0375,-0.0855 c -0.1194,-0.254063 -0.0945,-0.89144 0.0442,-1.13611 l 1.19097,-2.098479 c 0.83041,-1.463319 0.55954,-3.463685 -0.62996,-4.652188 l -5.87603,-5.876781 c -0.70485,-0.703859 -1.71813,-1.107688 -2.77984,-1.107688 -0.67298,0 -1.31999,0.165328 -1.87087,0.478218 l -1.98653,1.127213 c -0.0801,0.04549 -0.30918,0.113184 -0.61242,0.113184 -0.26221,0 -0.43644,-0.05116 -0.49206,-0.07809 l -2.04509,-0.86104 -0.0861,-0.03363 c -0.26395,-0.09515 -0.69645,-0.562491 -0.77133,-0.834099 l -0.67197,-2.434591 c -0.44731,-1.621989 -2.05301,-2.844845 -3.73505,-2.844845 h -8.31112 c -1.68229,0 -3.28772,1.223103 -3.73431,2.844104 l -0.67296,2.43558 c -0.0749,0.272102 -0.50911,0.742166 -0.77405,0.838551 l -2.20079,0.931227 -0.0934,0.04275 c -0.0551,0.0272 -0.22886,0.07859 -0.49132,0.07859 -0.29707,2.48e-4 -0.52122,-0.066 -0.60031,-0.110712 l -1.86963,-1.061469 c -0.55137,-0.312882 -1.19888,-0.478467 -1.8721,-0.478467 -1.06271,0 -2.07599,0.404323 -2.7796,1.108182 l -5.87752,5.876532 c -1.18924,1.189491 -1.45962,3.189115 -0.62922,4.651697 l 1.17046,2.061903 c 0.13963,0.246646 0.16731,0.885753 0.0489,1.140062 -0.32697,0.702871 -1.22756,2.05078 -1.65906,2.433851 l -2.18498,0.602529 c -1.62125,0.447574 -2.84361,2.053252 -2.84361,3.735297 v 8.310381 c 0,1.681303 1.22236,3.286981 2.84361,3.734802 l 2.36465,0.6527 c 0.26889,0.07414 0.73154,0.503675 0.82496,0.766385 l 0.72783,1.772004 0.0368,0.08354 c 0.11961,0.253074 0.0964,0.886249 -0.0418,1.12894 l -1.07803,1.89805 c -0.82941,1.462088 -0.55879,3.461463 0.63021,4.651695 l 5.87703,5.876287 c 0.70435,0.704353 1.71763,1.108182 2.77984,1.108182 v 0 c 0.67297,0 1.32023,-0.165346 1.87234,-0.478468 l 1.81922,-1.032308 c 0.0808,-0.04596 0.31139,-0.113933 0.61587,-0.113933 0.26247,0 0.43719,0.0509 0.49305,0.07786 l 2.07352,0.870432 0.0882,0.03435 c 0.2632,0.09441 0.69446,0.559528 0.7691,0.829903 l 0.63268,2.292484 c 0.44683,1.621496 2.05252,2.844844 3.73458,2.844844 h 8.3111 c 1.68204,0 3.28773,-1.222857 3.73505,-2.844844 l 0.6322,-2.293228 c 0.0741,-0.268641 0.50366,-0.730795 0.76589,-0.824216 l 1.91163,-0.787886 0.0877,-0.03904 c 0.0557,-0.02646 0.23008,-0.07685 0.4918,-0.07685 0.31116,0 0.54718,0.06968 0.62974,0.116662 l 1.93338,1.098045 c 0.5516,0.31313 1.19889,0.478468 1.87234,0.478468 1.06271,0 2.076,-0.404322 2.77984,-1.10843 l 5.87654,-5.876292 c 1.18975,-1.189244 1.46061,-3.189111 0.62998,-4.652439 l -1.09757,-1.932645 c -0.13741,-0.241952 -0.15998,-0.871174 -0.0402,-1.122268 l 0.78788,-1.892857 0.0331,-0.08576 c 0.0937,-0.26296 0.55681,-0.693232 0.82618,-0.767375 l 2.36515,-0.652454 c 1.62101,-0.44782 2.84336,-2.053498 2.84336,-3.734802 v -8.309653 c -9.2e-4,-1.682293 -1.22309,-3.288218 -2.84484,-3.735789 z m -0.96038,12.298253 -2.36467,0.652454 c -1.38769,0.382823 -2.74574,1.633605 -3.25015,2.986953 l -0.72017,1.735675 c -0.60278,1.313309 -0.52864,3.157973 0.18238,4.411724 l 1.09287,1.923252 c 0.0306,0.07662 0.005,0.265678 -0.0375,0.323756 l -5.86887,5.869364 c -0.0237,0.01801 -0.11538,0.05759 -0.2333,0.05759 -0.0544,0 -0.0904,-0.01129 -0.0883,-0.0075 l -1.93364,-1.098032 c -0.66778,-0.379115 -1.52487,-0.58795 -2.41357,-0.58795 -0.51209,0 -1.26958,0.07117 -1.99741,0.405559 l -1.7542,0.725117 c -1.3541,0.503425 -2.60588,1.861715 -2.98869,3.250157 l -0.62872,2.282105 c -0.032,0.07538 -0.18036,0.189312 -0.26346,0.202657 l -8.29234,4.63e-4 c -0.0817,-0.01109 -0.2338,-0.126781 -0.26296,-0.192766 L 134.71,88.292377 c -0.38207,-1.386217 -1.63064,-2.744755 -2.98151,-3.251642 l -1.90919,-0.798724 c -0.73401,-0.341795 -1.49842,-0.414703 -2.01544,-0.414703 -0.88279,0 -1.73493,0.207846 -2.399,0.584736 l -1.80907,1.026875 c -0.009,0.0037 -0.044,0.01309 -0.0993,0.01309 -0.11814,0 -0.21007,-0.03979 -0.22565,-0.05042 l -5.86888,-5.867354 c -0.0504,-0.06623 -0.0764,-0.256037 -0.0509,-0.32227 l 1.07753,-1.897062 c 0.71004,-1.25004 0.78715,-3.094209 0.18931,-4.408754 l -0.66754,-1.620035 c -0.50342,-1.354336 -1.86221,-2.606849 -3.25065,-2.989672 l -2.35303,-0.648745 c -0.0764,-0.03263 -0.19228,-0.184863 -0.20315,-0.255791 l -5.1e-4,-8.299259 c 0.0111,-0.0823 0.12703,-0.234538 0.19203,-0.263702 l 2.36341,-0.651711 c 1.98084,-0.545441 3.77805,-4.305698 3.79535,-4.342769 0.61118,-1.313065 0.53482,-3.182689 -0.18215,-4.447067 l -1.166,-2.053002 c -0.0306,-0.07712 -0.005,-0.265924 0.0371,-0.323509 l 5.86936,-5.869115 c 0.0237,-0.01801 0.11542,-0.05734 0.23305,-0.05734 0.0549,0 0.0897,0.01023 0.0887,0.0075 l 1.86889,1.060731 c 0.66085,0.375653 1.50781,0.582512 2.38466,0.582512 0.52296,0 1.29527,-0.07489 2.03546,-0.425579 l 2.03595,-0.863511 c 1.34568,-0.511831 2.5898,-1.871603 2.97089,-3.253865 l 0.6695,-2.425248 c 0.0324,-0.07611 0.18436,-0.191782 0.25505,-0.20241 l 8.30001,-5.08e-4 c 0.0823,0.0111 0.23428,0.127035 0.26344,0.193015 l 0.67198,2.434347 c 0.38183,1.384977 1.62891,2.744505 2.97757,3.253368 l 1.88073,0.789124 c 0.73526,0.343526 1.50089,0.41668 2.01916,0.41668 0.88179,0 1.73294,-0.2076 2.39578,-0.583996 l 1.9759,-1.121528 c 0.009,-0.0037 0.0435,-0.01256 0.0979,-0.01256 0.11867,0 0.21081,0.03979 0.2259,0.04992 l 5.86813,5.868127 c 0.0502,0.06599 0.0757,0.255052 0.0497,0.322272 l -1.19097,2.098972 c -0.7088,1.249547 -0.78813,3.091988 -0.19525,4.404803 l 0.61514,1.508057 c 0.50268,1.356065 1.86222,2.610309 3.25089,2.992885 l 2.35353,0.648251 c 0.0764,0.03263 0.19203,0.184862 0.20266,0.25604 l 4.7e-4,8.299259 c -0.0109,0.08204 -0.12631,0.234289 -0.19153,0.263205 z"
       id="path1"
       style="font-variation-settings:normal;opacity:1;vector-effect:none;fill:#dcb908;fill-opacity:1;stroke:#534703;stroke-width:0.15;stroke-linecap:round;stroke-linejoin:round;stroke-miterlimit:4;stroke-dasharray:none;stroke-dashoffset:0;stroke-opacity:1;-inkscape-stroke:none;stop-color:#000000;stop-opacity:1" /><path
       style="font-weight:bold;font-size:12.3319px;font-family:'Courier New';-inkscape-font-specification:'Courier New, Bold';text-align:center;text-anchor:middle;fill:#2f74b9;stroke:#163858;stroke-width:0.15;stroke-linecap:round;stroke-linejoin:round"
       d="m 199.33099,17.79942 v 0.770744 q 0.77677,-0.559993 1.22235,-0.746658 0.45161,-0.186664 0.84301,-0.186664 0.60214,0 1.16815,0.445586 0.38538,0.301072 0.38538,0.614186 0,0.264944 -0.18667,0.451608 -0.18064,0.180643 -0.43956,0.180643 -0.22882,0 -0.48172,-0.228814 -0.2529,-0.228815 -0.45161,-0.228815 -0.25892,0 -0.77676,0.325157 -0.51182,0.325158 -1.28257,0.975473 v 1.860624 h 1.75826 q 0.44559,0 0.63225,0.174621 0.19269,0.1686 0.19269,0.445586 0,0.270965 -0.19269,0.445587 -0.18666,0.1686 -0.63225,0.1686 h -3.72727 q -0.44558,0 -0.63827,-0.1686 -0.18666,-0.174622 -0.18666,-0.451608 0,-0.270965 0.18666,-0.439565 0.19269,-0.174621 0.63827,-0.174621 h 0.73462 v -2.998675 h -0.44559 q -0.44558,0 -0.63827,-0.1686 -0.18666,-0.174622 -0.18666,-0.451608 0,-0.270965 0.18666,-0.439565 0.19269,-0.174622 0.63827,-0.174622 z"
       id="path21" /><path
       style="font-weight:bold;font-size:12.3319px;font-family:'Courier New';-inkscape-font-specification:'Courier New, Bold';text-align:center;text-anchor:middle;fill:#2f74b9;stroke:#163858;stroke-width:0.15;stroke-linecap:round;stroke-linejoin:round"
       d="m 193.91772,19.924987 q -0.28301,-0.529886 -0.74063,-0.788808 -0.45763,-0.264943 -1.08988,-0.264943 -0.62623,0 -1.08386,0.264943 -0.45763,0.258922 -0.74666,0.788808 z"
       id="path20" /><path
       style="font-weight:bold;font-size:12.3319px;font-family:'Courier New';-inkscape-font-specification:'Courier New, Bold';text-align:center;text-anchor:middle;fill:#2f74b9;stroke:#163858;stroke-width:0.15;stroke-linecap:round;stroke-linejoin:round"
       d="m 195.28459,21.159381 h -5.06403 q 0.19269,0.481715 0.68042,0.776766 0.49376,0.29505 1.33074,0.29505 0.68644,0 1.8245,-0.29505 0.46967,-0.120429 0.65031,-0.120429 0.24688,0 0.41548,0.174622 0.1686,0.174621 0.1686,0.439564 0,0.240858 -0.18064,0.409458 -0.24086,0.222793 -1.17418,0.427522 -0.93333,0.198707 -1.79439,0.198707 -1.48127,0 -2.37245,-0.836979 -0.88515,-0.83698 -0.88515,-2.059331 0,-1.30063 0.95741,-2.113524 0.96343,-0.818915 2.21589,-0.818915 0.75268,0 1.37891,0.264943 0.63225,0.264943 0.93934,0.572036 0.43354,0.445586 0.71655,1.101923 0.19269,0.457629 0.19269,1.059773 z"
       id="path19" /><path
       style="font-weight:bold;font-size:12.3319px;font-family:'Courier New';-inkscape-font-specification:'Courier New, Bold';text-align:center;text-anchor:middle;fill:#2f74b9;stroke:#163858;stroke-width:0.15;stroke-linecap:round;stroke-linejoin:round"
       d="m 185.40341,15.457082 v 6.575408 h 1.48127 q 0.44559,0 0.63226,0.174621 0.19268,0.1686 0.19268,0.445586 0,0.270965 -0.19268,0.445587 -0.18667,0.1686 -0.63226,0.1686 h -4.19694 q -0.44558,0 -0.63827,-0.1686 -0.18666,-0.174622 -0.18666,-0.451608 0,-0.270965 0.18666,-0.439565 0.19269,-0.174621 0.63827,-0.174621 h 1.48128 v -5.341014 h -0.99354 q -0.43956,0 -0.63225,-0.1686 -0.19269,-0.174621 -0.19269,-0.451607 0,-0.270965 0.18667,-0.439565 0.19268,-0.174622 0.63827,-0.174622 z"
       id="path18" /><path
       style="font-weight:bold;font-size:12.3319px;font-family:'Courier New';-inkscape-font-specification:'Courier New, Bold';text-align:center;text-anchor:middle;fill:#2f74b9;stroke:#163858;stroke-width:0.15;stroke-linecap:round;stroke-linejoin:round"
       d="m 177.99705,17.79942 v 4.23307 h 1.48128 q 0.44558,0 0.63225,0.174621 0.19268,0.1686 0.19268,0.445586 0,0.270965 -0.19268,0.445587 -0.18667,0.1686 -0.63225,0.1686 h -4.19694 q -0.44559,0 -0.63828,-0.1686 -0.18666,-0.174622 -0.18666,-0.451608 0,-0.270965 0.18666,-0.439565 0.19269,-0.174621 0.63828,-0.174621 h 1.48127 v -2.998675 h -0.99354 q -0.43956,0 -0.63225,-0.1686 -0.19268,-0.174622 -0.19268,-0.451608 0,-0.270965 0.18666,-0.439565 0.19269,-0.174622 0.63827,-0.174622 z"
       id="path17" /><path
       style="font-weight:bold;font-size:12.3319px;font-family:'Courier New';-inkscape-font-specification:'Courier New, Bold';text-align:center;text-anchor:middle;fill:#2f74b9;stroke:#163858;stroke-width:0.15;stroke-linecap:round;stroke-linejoin:round"
       d="m 177.82845,15.457082 v 1.306652 h -1.46923 v -1.306652 z"
       id="path16" /><path
       style="font-weight:bold;font-size:12.3319px;font-family:'Courier New';-inkscape-font-specification:'Courier New, Bold';text-align:center;text-anchor:middle;fill:#2f74b9;stroke:#163858;stroke-width:0.15;stroke-linecap:round;stroke-linejoin:round"
       d="m 172.11411,20.466916 q 0,-0.258921 -0.20473,-0.656336 -0.20473,-0.403436 -0.63225,-0.668379 -0.4215,-0.270965 -0.99354,-0.270965 -0.92128,0 -1.46321,0.692465 -0.3673,0.475693 -0.3673,0.915258 0,0.493758 0.52386,0.96343 0.52989,0.46365 1.30665,0.46365 0.78279,0 1.30665,-0.46365 0.52387,-0.463651 0.52387,-0.975473 z"
       id="path15" /><path
       style="font-weight:bold;font-size:12.3319px;font-family:'Courier New';-inkscape-font-specification:'Courier New, Bold';text-align:center;text-anchor:middle;fill:#2f74b9;stroke:#163858;stroke-width:0.15;stroke-linecap:round;stroke-linejoin:round"
       d="m 168.45308,22.586462 v 2.023202 h 0.74063 q 0.44559,0 0.63225,0.1686 0.19269,0.174622 0.19269,0.451608 0,0.270964 -0.19269,0.439565 -0.18666,0.174621 -0.63225,0.174621 h -2.18578 q -0.44558,0 -0.63827,-0.174621 -0.18666,-0.168601 -0.18666,-0.439565 0,-0.276986 0.19268,-0.451608 0.19269,-0.1686 0.63225,-0.1686 h 0.21075 v -5.575849 h -0.21075 q -0.44558,0 -0.63827,-0.1686 -0.18666,-0.174622 -0.18666,-0.451608 0,-0.270965 0.18666,-0.439565 0.19269,-0.174622 0.63827,-0.174622 h 1.44515 v 0.421501 q 0.43354,-0.29505 0.89719,-0.439565 0.46365,-0.144514 0.95139,-0.144514 1.2645,0 2.15567,0.861065 0.89117,0.855044 0.89117,1.962988 0,1.222351 -1.05375,2.017181 -0.87913,0.662358 -1.98105,0.662358 -0.47569,0 -0.93934,-0.138493 -0.46365,-0.138493 -0.92128,-0.415479 z"
       id="path14" /><path
       style="font-weight:bold;font-size:12.3319px;font-family:'Courier New';-inkscape-font-specification:'Courier New, Bold';text-align:center;text-anchor:middle;fill:#2f74b9;stroke:#163858;stroke-width:0.15;stroke-linecap:round;stroke-linejoin:round"
       d="m 160.6794,17.79942 v 0.349244 q 0.30108,-0.295051 0.54193,-0.403436 0.24688,-0.114408 0.56602,-0.114408 0.27096,0 0.53591,0.132472 0.26494,0.132471 0.51784,0.397415 0.31913,-0.264944 0.64429,-0.391394 0.33118,-0.132471 0.6744,-0.132471 0.68645,0 1.11397,0.367307 0.56601,0.481715 0.56601,1.264502 v 2.763839 q 0.38538,0 0.57204,0.174621 0.18666,0.174622 0.18666,0.445586 0,0.270965 -0.18666,0.445587 -0.18666,0.1686 -0.63225,0.1686 h -1.17418 v -3.895869 q 0,-0.283007 -0.10237,-0.391393 -0.10236,-0.108386 -0.31311,-0.108386 -0.20473,0 -0.37935,0.108386 -0.22279,0.150536 -0.54193,0.566015 v 2.486853 q 0.38537,0 0.57204,0.174621 0.18666,0.174622 0.18666,0.445586 0,0.270965 -0.18666,0.445587 -0.18667,0.1686 -0.63225,0.1686 h -1.17418 v -3.895869 q 0,-0.276986 -0.10839,-0.385372 -0.10236,-0.114407 -0.31311,-0.114407 -0.21678,0 -0.42753,0.138493 -0.21075,0.132472 -0.5058,0.535908 v 2.486853 q 0.38538,0 0.57204,0.174621 0.19269,0.174622 0.19269,0.445586 0,0.270965 -0.19269,0.445587 -0.18666,0.1686 -0.63225,0.1686 h -1.11397 q -0.44558,0 -0.63225,-0.1686 -0.19268,-0.174622 -0.19268,-0.451608 0,-0.270965 0.18666,-0.439565 0.18667,-0.174621 0.57806,-0.174621 v -2.998675 q -0.39139,0 -0.57806,-0.174622 -0.18666,-0.174622 -0.18666,-0.445586 0,-0.270965 0.19268,-0.439565 0.18667,-0.174622 0.63225,-0.174622 z"
       id="path13" /><path
       style="font-weight:bold;font-size:12.3319px;font-family:'Courier New';-inkscape-font-specification:'Courier New, Bold';text-align:center;text-anchor:middle;fill:#2f74b9;stroke:#163858;stroke-width:0.15;stroke-linecap:round;stroke-linejoin:round"
       d="m 157.15686,20.641538 q 0,-0.596122 -0.42752,-1.095901 -0.58408,-0.674401 -1.53547,-0.674401 -0.83697,0 -1.39697,0.535908 -0.55999,0.535907 -0.55999,1.240415 0,0.578058 0.56601,1.083859 0.56602,0.499779 1.39095,0.499779 0.83096,0 1.39698,-0.499779 0.56601,-0.505801 0.56601,-1.08988 z"
       id="path12" /><path
       style="font-weight:bold;font-size:12.3319px;font-family:'Courier New';-inkscape-font-specification:'Courier New, Bold';text-align:center;text-anchor:middle;fill:#2f74b9;stroke:#163858;stroke-width:0.15;stroke-linecap:round;stroke-linejoin:round"
       d="m 158.39126,20.635538 q 0,0.710529 -0.39742,1.378908 -0.39139,0.662358 -1.17418,1.059773 -0.77676,0.391393 -1.62579,0.391393 -0.843,0 -1.61374,-0.385372 -0.77074,-0.391393 -1.17418,-1.059772 -0.40344,-0.66838 -0.40344,-1.396973 0,-0.740637 0.40946,-1.451166 0.40946,-0.716551 1.17418,-1.126009 0.77075,-0.409457 1.60772,-0.409457 0.84301,0 1.61977,0.4215 0.78279,0.415479 1.1802,1.126009 0.39742,0.704508 0.39742,1.451166 z"
       id="path11" /><path
       style="font-weight:bold;font-size:12.3319px;font-family:'Courier New';-inkscape-font-specification:'Courier New, Bold';text-align:center;text-anchor:middle;fill:#2f74b9;stroke:#163858;stroke-width:0.15;stroke-linecap:round;stroke-linejoin:round"
       d="m 149.72039,16.28204 q 0.11441,-0.156558 0.24688,-0.234836 0.13849,-0.07828 0.29505,-0.07828 0.27096,0 0.43956,0.186665 0.17462,0.186664 0.17462,0.63225 v 1.04773 q 0,0.445586 -0.17462,0.638272 -0.1686,0.186665 -0.43956,0.186665 -0.24688,0 -0.39742,-0.138493 -0.15053,-0.138493 -0.22279,-0.517844 -0.0421,-0.2529 -0.1686,-0.391393 -0.24688,-0.270965 -0.69246,-0.433543 -0.43957,-0.162579 -0.88516,-0.162579 -0.55397,0 -1.01762,0.240857 -0.46365,0.240858 -0.81891,0.782787 -0.35527,0.541929 -0.35527,1.288587 v 0.800851 q 0,0.891172 0.6443,1.487295 0.65031,0.596122 1.8004,0.596122 0.68645,0 1.16214,-0.186665 0.27699,-0.108386 0.5901,-0.427522 0.19269,-0.192686 0.30107,-0.246879 0.10839,-0.06021 0.24688,-0.06021 0.24688,0 0.43355,0.186665 0.18666,0.186664 0.18666,0.439564 0,0.252901 -0.2529,0.541929 -0.36731,0.421501 -0.94536,0.662358 -0.77677,0.325158 -1.71611,0.325158 -1.09591,0 -1.97503,-0.451608 -0.71053,-0.361286 -1.21031,-1.138051 -0.49978,-0.782787 -0.49978,-1.704066 v -0.83698 q 0,-0.963429 0.44558,-1.794388 0.45161,-0.836979 1.24644,-1.288587 0.79483,-0.451607 1.686,-0.451607 0.53591,0 0.99956,0.12645 0.46967,0.120428 0.87311,0.373329 z"
       id="path10" /><path
       style="font-weight:bold;font-size:12.3319px;font-family:'Courier New';-inkscape-font-specification:'Courier New, Bold';text-align:center;text-anchor:middle;fill:#2f74b9;stroke:#163858;stroke-width:0.15;stroke-linecap:round;stroke-linejoin:round"
       d="m 135.11239,20.466937 q 0,-0.258921 -0.20473,-0.656336 -0.20473,-0.403436 -0.63225,-0.668379 -0.4215,-0.270965 -0.99354,-0.270965 -0.92128,0 -1.46321,0.692465 -0.3673,0.475693 -0.3673,0.915258 0,0.493758 0.52386,0.96343 0.52989,0.46365 1.30665,0.46365 0.78279,0 1.30665,-0.46365 0.52387,-0.463651 0.52387,-0.975473 z"
       id="path9" /><path
       style="font-weight:bold;font-size:12.3319px;font-family:'Courier New';-inkscape-font-specification:'Courier New, Bold';text-align:center;text-anchor:middle;fill:#2f74b9;stroke:#163858;stroke-width:0.15;stroke-linecap:round;stroke-linejoin:round"
       d="m 131.45136,22.586483 v 2.023202 h 0.74063 q 0.44559,0 0.63225,0.1686 0.19269,0.174622 0.19269,0.451608 0,0.270964 -0.19269,0.439565 -0.18666,0.174621 -0.63225,0.174621 h -2.18578 q -0.44558,0 -0.63827,-0.174621 -0.18666,-0.168601 -0.18666,-0.439565 0,-0.276986 0.19268,-0.451608 0.19269,-0.1686 0.63225,-0.1686 h 0.21075 v -5.575849 h -0.21075 q -0.44558,0 -0.63827,-0.1686 -0.18666,-0.174622 -0.18666,-0.451608 0,-0.270965 0.18666,-0.439565 0.19269,-0.174622 0.63827,-0.174622 h 1.44515 v 0.421501 q 0.43354,-0.29505 0.89719,-0.439565 0.46365,-0.144514 0.95139,-0.144514 1.2645,0 2.15567,0.861065 0.89117,0.855044 0.89117,1.962988 0,1.222351 -1.05375,2.017181 -0.87913,0.662358 -1.98105,0.662358 -0.47569,0 -0.93934,-0.138493 -0.46365,-0.138493 -0.92128,-0.415479 z"
       id="path8" /><path
       style="font-weight:bold;font-size:12.3319px;font-family:'Courier New';-inkscape-font-specification:'Courier New, Bold';text-align:center;text-anchor:middle;fill:#2f74b9;stroke:#163858;stroke-width:0.15;stroke-linecap:round;stroke-linejoin:round"
       d="m 128.2058,17.799441 v 4.23307 q 0.3914,0 0.57806,0.174621 0.18666,0.174622 0.18666,0.445586 0,0.270965 -0.19268,0.445587 -0.18667,0.1686 -0.63225,0.1686 h -1.17418 v -0.283008 q -0.52989,0.240858 -1.0116,0.361286 -0.48172,0.120429 -0.91526,0.120429 -0.60817,0 -1.05375,-0.2529 -0.44559,-0.258922 -0.70451,-0.710529 -0.18666,-0.325158 -0.18666,-0.812894 v -2.655453 h -0.21076 q -0.44558,0 -0.63827,-0.1686 -0.18666,-0.174622 -0.18666,-0.451608 0,-0.270965 0.18666,-0.439565 0.19269,-0.174622 0.63827,-0.174622 h 1.44515 v 3.673076 q 0,0.391393 0.18666,0.578058 0.19269,0.180643 0.58408,0.180643 0.37333,0 0.80085,-0.144515 0.43355,-0.150535 1.0658,-0.535907 v -2.51696 h -0.44559 q -0.44558,0 -0.63827,-0.1686 -0.18666,-0.174622 -0.18666,-0.451608 0,-0.270965 0.18666,-0.439565 0.19269,-0.174622 0.63827,-0.174622 z"
       id="path7" /><path
       style="font-weight:bold;font-size:12.3319px;font-family:'Courier New';-inkscape-font-specification:'Courier New, Bold';text-align:center;text-anchor:middle;fill:#2f74b9;stroke:#163858;stroke-width:0.15;stroke-linecap:round;stroke-linejoin:round"
       d="m 117.16851,21.213595 v 2.05331 h -1.44514 q -0.44559,0 -0.63828,-0.1686 -0.18666,-0.174622 -0.18666,-0.451608 0,-0.270965 0.19269,-0.439565 0.19268,-0.174621 0.63225,-0.174621 h 0.21075 v -5.341014 h -0.21075 q -0.44559,0 -0.63828,-0.1686 -0.18666,-0.174621 -0.18666,-0.451607 0,-0.270965 0.18666,-0.439565 0.19269,-0.174622 0.63828,-0.174622 h 1.44514 v 4.160812 l 0.96343,-0.776765 q -0.15054,-0.258922 -0.15054,-0.421501 0,-0.276986 0.18667,-0.445586 0.18666,-0.174622 0.63225,-0.174622 h 1.40902 q 0.44558,0 0.63225,0.174622 0.19268,0.1686 0.19268,0.445586 0,0.270965 -0.19268,0.445587 -0.18667,0.1686 -0.63225,0.1686 h -0.34323 l -1.49933,1.21633 2.01718,1.782345 h 0.36128 q 0.44559,0 0.63225,0.174621 0.19269,0.1686 0.19269,0.445586 0,0.270965 -0.19269,0.445587 -0.18666,0.1686 -0.63225,0.1686 h -1.42106 q -0.44558,0 -0.63827,-0.1686 -0.18666,-0.174622 -0.18666,-0.451608 0,-0.234836 0.20473,-0.463651 l -1.30665,-1.156115 z"
       id="path6" /><path
       style="font-weight:bold;font-size:12.3319px;font-family:'Courier New';-inkscape-font-specification:'Courier New, Bold';text-align:center;text-anchor:middle;fill:#2f74b9;stroke:#163858;stroke-width:0.15;stroke-linecap:round;stroke-linejoin:round"
       d="m 112.70663,18.022235 q 0.22279,-0.210751 0.45763,-0.210751 0.26494,0 0.43354,0.192686 0.17462,0.186665 0.17462,0.62623 v 0.794829 q 0,0.445586 -0.17462,0.632251 -0.1686,0.186664 -0.44559,0.186664 -0.2529,0 -0.42752,-0.144514 -0.12645,-0.108386 -0.19871,-0.439565 -0.0723,-0.3372 -0.34924,-0.499779 -0.48773,-0.289029 -1.24644,-0.289029 -0.8731,0 -1.40299,0.511822 -0.52386,0.511822 -0.52386,1.294609 0,0.722572 0.5058,1.144072 0.5058,0.415479 1.67998,0.415479 0.77074,0 1.25848,-0.156557 0.28903,-0.09634 0.54795,-0.325157 0.25892,-0.234836 0.46967,-0.234836 0.2529,0 0.43354,0.186664 0.18667,0.186665 0.18667,0.439565 0,0.409457 -0.56,0.776765 -0.83095,0.547951 -2.43266,0.547951 -1.43912,0 -2.23997,-0.596122 -1.08386,-0.800851 -1.08386,-2.191803 0,-1.318694 0.87913,-2.17976 0.87913,-0.867086 2.29417,-0.867086 0.51182,0 0.95138,0.09634 0.43957,0.09634 0.8129,0.289029 z"
       id="path5" /><path
       style="font-weight:bold;font-size:12.3319px;font-family:'Courier New';-inkscape-font-specification:'Courier New, Bold';text-align:center;text-anchor:middle;fill:#2f74b9;stroke:#163858;stroke-width:0.15;stroke-linecap:round;stroke-linejoin:round"
       d="m 105.35446,20.641559 q 0,-0.596122 -0.42753,-1.095901 -0.58408,-0.674401 -1.53546,-0.674401 -0.83698,0 -1.39698,0.535908 -0.55999,0.535907 -0.55999,1.240415 0,0.578058 0.56602,1.083859 0.56601,0.499779 1.39095,0.499779 0.83096,0 1.39697,-0.499779 0.56602,-0.505801 0.56602,-1.08988 z"
       id="path4" /><path
       style="font-weight:bold;font-size:12.3319px;font-family:'Courier New';-inkscape-font-specification:'Courier New, Bold';text-align:center;text-anchor:middle;fill:#2f74b9;stroke:#163858;stroke-width:0.15;stroke-linecap:round;stroke-linejoin:round"
       d="m 106.58885,20.635559 q 0,0.710529 -0.39741,1.378908 -0.3914,0.662358 -1.17418,1.059773 -0.77677,0.391393 -1.62579,0.391393 -0.843,0 -1.61375,-0.385372 -0.77074,-0.391393 -1.17418,-1.059772 -0.40343,-0.66838 -0.40343,-1.396973 0,-0.740637 0.40945,-1.451166 0.40946,-0.716551 1.17418,-1.126009 0.77075,-0.409457 1.60773,-0.409457 0.843,0 1.61976,0.4215 0.78279,0.415479 1.18021,1.126009 0.39741,0.704508 0.39741,1.451166 z"
       id="path3" /><path
       style="font-weight:bold;font-size:12.3319px;font-family:'Courier New';-inkscape-font-specification:'Courier New, Bold';text-align:center;text-anchor:middle;fill:#2f74b9;stroke:#163858;stroke-width:0.56405;stroke-linecap:round;stroke-linejoin:round"
       d="m 132.38097,58.4269 v 13.834638 h 1.67555 q 1.67555,0 2.37748,0.656634 0.72456,0.633992 0.72456,1.675552 0,1.01892 -0.72456,1.675557 -0.70193,0.633992 -2.37748,0.633992 h -6.09086 q -1.67556,0 -2.37748,-0.633992 -0.72456,-0.656637 -0.72456,-1.698198 0,-1.018919 0.70192,-1.652911 0.70192,-0.656634 2.17369,-0.656634 V 54.102157 q -1.2227,-0.113223 -1.85669,-0.747205 -0.61136,-0.633992 -0.61136,-1.584981 0,-1.04156 0.70192,-1.675556 0.72457,-0.656634 2.40012,-0.656634 l 5.09459,0.02256 6.31729,13.970495 6.20408,-13.993136 5.13987,0.02256 q 1.67555,0 2.37748,0.633993 0.72456,0.633996 0.72456,1.675556 0,0.950989 -0.63399,1.584981 -0.634,0.633993 -1.83406,0.747205 v 18.159381 q 1.47178,0 2.1737,0.656634 0.70192,0.656637 0.70192,1.675552 0,1.01892 -0.72457,1.675557 -0.70192,0.633992 -2.37747,0.633992 h -6.11351 q -1.65291,0 -2.37747,-0.633992 -0.70192,-0.656637 -0.70192,-1.698198 0,-1.018919 0.70192,-1.652911 0.72456,-0.656634 2.37747,-0.656634 h 1.6982 V 58.426742 l -5.32102,11.955298 h -4.03038 z"
       id="text3" /><path
       style="font-weight:bold;font-size:12.3319px;font-family:'Courier New';-inkscape-font-specification:'Courier New, Bold';text-align:center;text-anchor:middle;fill:#dcb908;stroke:#534703;stroke-width:0.590808;stroke-linecap:round;stroke-linejoin:round"
       d="m 57.028637,24.907807 q 0.877547,-0.830085 1.802477,-0.830085 1.043525,0 1.707633,0.758936 0.68778,0.735222 0.68778,2.466542 v 3.130614 q 0,1.755039 -0.68778,2.490261 -0.664108,0.735217 -1.755055,0.735217 -0.996103,0 -1.683882,-0.5692 -0.498051,-0.426903 -0.782663,-1.731324 -0.28477,-1.328141 -1.37556,-1.968491 -1.921072,-1.138405 -4.90938,-1.138405 -3.438937,0 -5.526026,2.015925 -2.063339,2.015924 -2.063339,5.0991 0,2.846014 1.992205,4.506185 1.992206,1.636457 6.616974,1.636457 3.03573,0 4.956802,-0.616635 1.138409,-0.379456 2.158223,-1.280707 1.019814,-0.924953 1.849899,-0.924953 0.996103,0 1.707633,0.735221 0.735202,0.735218 0.735202,1.731324 0,1.612737 -2.205645,3.059461 -3.27292,2.158223 -9.58157,2.158223 -5.668333,0 -8.822658,-2.347959 -4.268984,-3.154329 -4.268984,-8.632898 0,-5.193968 3.462649,-8.585468 3.462609,-3.41521 9.036057,-3.41521 2.015917,0 3.747261,0.379457 1.731304,0.379456 3.201747,1.1384 z"
       id="path22" /><path
       style="font-weight:bold;font-size:12.3319px;font-family:'Courier New';-inkscape-font-specification:'Courier New, Bold';font-variation-settings:normal;text-align:center;text-anchor:middle;opacity:1;vector-effect:none;fill:#2f74b9;fill-opacity:1;stroke:#163858;stroke-width:0.590808;stroke-linecap:round;stroke-linejoin:round;stroke-miterlimit:4;stroke-dasharray:none;stroke-dashoffset:0;stroke-opacity:1;-inkscape-stroke:none;stop-color:#000000;stop-opacity:1"
       d="m 12.796911,24.836655 v 1.375574 q 1.185831,-1.162123 2.134472,-1.589026 0.972392,-0.450617 2.229396,-0.450617 1.067236,0 2.1108,0.52177 1.043525,0.521767 2.039628,1.565304 1.257003,-1.043537 2.537678,-1.541589 1.304426,-0.521766 2.656314,-0.521766 2.703696,0 4.387578,1.44672 2.229395,1.897341 2.229395,4.980521 v 10.885989 q 1.517865,0 2.253067,0.687787 0.735241,0.687788 0.735241,1.75504 0,1.067255 -0.735241,1.755039 -0.735202,0.664072 -2.490256,0.664072 H 28.260214 V 31.02673 q 0,-1.11469 -0.403167,-1.541588 -0.403207,-0.426903 -1.233293,-0.426903 -0.806374,0 -1.494154,0.426903 -0.877508,0.592919 -2.134511,2.229375 v 9.795018 q 1.517865,0 2.253106,0.687787 0.735202,0.687788 0.735202,1.75504 0,1.067255 -0.735202,1.755039 -0.735241,0.664072 -2.490257,0.664072 H 18.13317 V 31.02673 q 0,-1.090971 -0.426918,-1.517873 -0.403167,-0.450618 -1.233253,-0.450618 -0.853797,0 -1.683882,0.545486 -0.830086,0.521766 -1.992206,2.110792 v 9.795018 q 1.517866,0 2.253067,0.687787 0.758953,0.687788 0.758953,1.75504 0,1.067255 -0.758953,1.755039 -0.735201,0.664072 -2.490256,0.664072 H 8.1721432 q -1.755055,0 -2.4902566,-0.664072 -0.7589522,-0.687784 -0.7589522,-1.778754 0,-1.067256 0.7352017,-1.731325 0.7352411,-0.687787 2.2768171,-0.687787 V 29.698593 q -1.541576,0 -2.2768171,-0.687788 -0.7352017,-0.687787 -0.7352017,-1.755039 0,-1.067256 0.7589522,-1.731324 0.7352016,-0.687787 2.4902566,-0.687787 z"
       id="text4" /><path
       style="font-variation-settings:normal;opacity:1;vector-effect:none;fill:#dcb908;fill-opacity:1;stroke:#534703;stroke-width:0.438933;stroke-linecap:round;stroke-linejoin:round;stroke-miterlimit:4;stroke-dasharray:none;stroke-dashoffset:0;stroke-opacity:1;-inkscape-stroke:none;stop-color:#000000;stop-opacity:1"
       d="m 49.67243,12.59834 -5.569503,7.230557 h 11.139005 z"
       id="path23"
       sodipodi:nodetypes="cccc" /><path
       style="font-variation-settings:normal;opacity:1;vector-effect:none;fill:#dcb908;fill-opacity:1;stroke:#534703;stroke-width:0.438933;stroke-linecap:round;stroke-linejoin:round;stroke-miterlimit:4;stroke-dasharray:none;stroke-dashoffset:0;stroke-opacity:1;-inkscape-stroke:none;stop-color:#000000;stop-opacity:1"
       d="M 49.67243,56.988445 44.102927,49.757888 H 55.241932 Z"
       id="path24"
       sodipodi:nodetypes="cccc" /></g></svg>
